<?xml version="1.0" encoding="UTF-8"?>
<svg id="Layer_2" data-name="Layer 2" xmlns="http://www.w3.org/2000/svg" viewBox="0 0 587.39 133.62">
  <defs>
    <style>
      .cls-1 {
        fill: #fff;
      }
    </style>
  </defs>
  <g id="Layer_1-2" data-name="Layer 1">
    <g>
      <g>
        <path class="cls-1" d="M544.65,68.8c-5.29-1.35-13.47-3.85-21.84-7.41,2.12-3.75,4.81-5.29,7.79-5.29,6.16,0,12.7,6.35,14.05,12.7Z"/>
        <path class="cls-1" d="M587.39,57.24v20.3c0,21.69-17.58,39.26-39.26,39.26h-20.3c-18.07,0-33.27-12.19-37.85-28.8,10.9-1.45,20.13-3.19,23.79-4.96l2.59-7.32,2.6,1.45c7.7,4.23,14.91,6.83,24.63,7.98,3.18-4.71,6.55-10.58,8.37-15.87l.29-.77c4.43-12.99-3.75-26.94-14.24-26.94-6.35,0-13.47,5.1-20.78,18.28l-4.81,8.95c-7.15,1.77-15.12,3.41-23.85,4.69v-16.25c0-21.68,17.57-39.26,39.26-39.26h20.3c21.68,0,39.26,17.58,39.26,39.26Z"/>
        <path class="cls-1" d="M488.57,77.54v-4.05c-2.98.44-6.05.83-9.2,1.17-13.28,1.44-25.33,1.65-35.76,1.27.06-.71.11-1.65.09-2.76-.2-12.13-8.6-28.96-19.91-28.96-10.01,0-19.82,9.72-19.82,25.69,0,4.57.79,7.96,2.15,10.54,1.36,2.57,3.28,4.33,5.54,5.63,5.09,2.91,12.19,4.58,20.08,5.32-5.82,4.42-17.81,8.22-29.89,8.82v6.74l23.29,5.67c5.96-6.43,11.42-12.86,14.85-20.8.66.01,1.32.02,1.98.02,10.24,0,31.12-1.58,48.01-3.84-.92-3.33-1.41-6.84-1.41-10.46ZM426.82,77.12c-4.19-4.22-6.96-5.65-12.82-6.63,4.22-4.19,5.65-6.96,6.63-12.82,4.19,4.22,6.95,5.65,12.82,6.63-4.22,4.19-5.65,6.95-6.63,12.82ZM391.94,15.35h-3.85l-7.89,12.6,3.47,62.06h4.52l3.46-15.58c.77-3.66,1.25-7.7,1.25-11.45v-23.48l4.24-4.91-5.2-19.24ZM373.08,58.93l-11.64-14.33h-3.85l-6.83,15.59c3.95,4.61,8.08,9.23,12.32,16.35-2.99,10.59-14.15,18.48-30.22,21.65v4.72l20.69,7.69c9.53-11.06,16.36-25.59,16.36-38.77,0-1.64-.1-3.27-.29-4.91l3.46-7.99ZM337.77,50.37l2.6-4.81-13.85-9.24h-3.85l-5.78,15.78c9.82,7.89,16.84,12.61,16.36,17.32-4.91.39-13.28.87-16.84.87-8.75,0-8.37-2.89-9.62-7.99h-4.04c-.58,5.1-1.06,11.45-1.06,14.15,0,8.27,4.43,12.02,12.32,12.02,5,0,14.14-1.54,20.3-4.52l3.85-8.47c4.62-10.1,3.27-18.28-.39-25.11ZM489.21,14.01c-6.03.23-11.95,1.13-17.86,2.21-5.89,1.04-11.59,2.89-17.37,4.39-11.24,2.91-23.47,6.22-34.6,9.37l.09.39c5.89-1.01,11.76-2.14,17.64-3.2,4.39-.82,13.22-2.53,17.59-3.4,2.93-.58,5.88-1.09,8.82-1.62,5.89-1.07,11.64-2.69,17.33-4.55,2.84-.95,5.67-1.97,8.45-3.2l-.09-.39Z"/>
      </g>
      <path class="cls-1" d="M10.21,12.57c-1.82-1.54-3.98-2.59-6.48-3.15l-.95,4.79c1.87.46,3.45,1.22,4.75,2.28,1.3,1.06,2.29,2.39,2.97,3.98.04.1.07.21.12.32H.61v5.14h15.39c-.02-2.83-.53-5.38-1.54-7.65-1.01-2.27-2.42-4.18-4.24-5.72ZM20.53,26.51c0,.6-.12,1.09-.35,1.49-.23.39-.62.69-1.17.88-.55.19-1.31.3-2.29.32l.84,4.91c1.52-.08,2.83-.43,3.94-1.05,1.11-.63,1.96-1.5,2.57-2.61.61-1.12.91-2.42.91-3.93v-15.39h-4.45v15.39ZM28.67,25.94h4.45V.94h-4.45v25ZM162.62,16.4c.29,1.05.43,2.18.43,3.39,0,1.08-.13,2.24-.4,3.48-.27,1.24-.66,2.39-1.18,3.45-1.91.12-3.56.11-4.96-.03-1.41-.13-2.63-.39-3.68-.75s-1.98-.83-2.8-1.39c-.43-.3-.85-.62-1.26-.97-.82.77-1.68,1.36-2.6,1.74-.96.4-2.1.61-3.41.61,0,0,0,0,0,0h0s-92.01,0-92.01,0v.61c0,1.56-.33,2.91-.98,4.06-.65,1.14-1.58,2.02-2.77,2.63-1.19.61-2.6.91-4.21.91h-5.14v-5.14h5.14c1.33,0,2.25-.21,2.77-.62.52-.41.78-1.02.78-1.83v-.61h-1.73c-1.66,0-3.1-.35-4.33-1.04-1.23-.69-2.18-1.62-2.86-2.79-.67-1.16-1.01-2.45-1.01-3.85,0-1.14.21-2.18.63-3.13.42-.95,1.01-1.78,1.78-2.48.76-.7,1.64-1.26,2.64-1.66,1-.4,2.07-.61,3.2-.61s2.2.17,3.26.51c1.06.34,2,.7,2.83,1.08v8.83h92.01s0,0,0,0c.81,0,1.5-.12,2.06-.38.57-.25,1.09-.64,1.57-1.18.48-.54.98-1.2,1.5-1.99.48-.71,1-1.43,1.56-2.15.56-.72,1.17-1.39,1.85-1.99.67-.61,1.43-1.09,2.27-1.46.84-.37,1.78-.55,2.84-.55s2.03.23,2.86.68c.83.45,1.52,1.07,2.08,1.86.56.79.98,1.71,1.27,2.76ZM46.33,15.4c-.59-.17-1.15-.25-1.67-.25-.77,0-1.44.15-2.01.45-.57.3-1.01.69-1.33,1.17-.32.48-.48.99-.48,1.53,0,.5.14.97.43,1.41.29.44.72.8,1.28,1.07.57.27,1.25.4,2.04.4h1.73v-5.78ZM158.61,19.79c0-1.25-.2-2.17-.59-2.76-.39-.59-.95-.88-1.66-.88-.48,0-.97.14-1.47.42-.5.28-1.03.72-1.59,1.31-.56.59-1.15,1.37-1.78,2.33.47.33.98.6,1.55.81.94.34,2.08.54,3.41.61.6.03,1.26.04,1.96.04.12-.62.18-1.24.18-1.87ZM178.9,6.22c.62,0,1.12-.2,1.5-.59.38-.39.58-.89.58-1.49s-.19-1.12-.58-1.5c-.39-.38-.89-.58-1.5-.58s-1.09.19-1.49.58c-.39.39-.59.89-.59,1.5s.2,1.09.59,1.49c.39.39.89.59,1.49.59ZM183.67,6.22c.6,0,1.09-.2,1.49-.59.39-.39.59-.89.59-1.49s-.2-1.12-.59-1.5c-.39-.38-.89-.58-1.49-.58s-1.09.19-1.49.58c-.39.39-.59.89-.59,1.5s.2,1.09.59,1.49c.39.39.89.59,1.49.59ZM193.86,6.74L208,.22v5.54l-8.77,3.42c1.13.85,2.13,1.62,2.97,2.31,1,.82,1.82,1.59,2.45,2.32.64.73,1.1,1.49,1.4,2.27.3.78.45,1.64.45,2.58,0,1.48-.37,2.77-1.1,3.85-.73,1.09-1.74,1.93-3.02,2.53-1.28.6-2.75.89-4.4.89h-6.09c-1.54,0-2.84-.29-3.91-.88-.55-.3-1.03-.68-1.45-1.13-.55.2-1.12.38-1.71.51-.96.21-1.92.32-2.86.32-1.14,0-2.21-.14-3.23-.43-1.02-.29-1.92-.72-2.68-1.28-.77-.57-1.38-1.28-1.82-2.14-.44-.86-.66-1.85-.66-2.99,0-1.29.29-2.43.88-3.42.59-.99,1.4-1.82,2.44-2.5,1.04-.67,2.26-1.2,3.65-1.57,1.29-.35,2.69-.55,4.17-.63v-.92h4.45v9.53c0,.62.07,1.1.22,1.46.14.36.41.6.81.74.39.13.97.2,1.72.2h6.09c.88,0,1.63-.1,2.24-.29.61-.19,1.06-.45,1.37-.78.31-.33.46-.68.46-1.07,0-.27-.07-.54-.22-.81-.14-.27-.43-.61-.87-1.02s-1.06-.95-1.89-1.62c-.83-.66-1.93-1.5-3.32-2.5l-1.91-1.44v-4.53ZM184.8,19.82c-.05-.45-.09-.92-.09-1.42v-4.15c-.84.05-1.63.14-2.35.29-.88.18-1.64.43-2.29.75-.65.32-1.16.7-1.52,1.14-.36.44-.53.94-.53,1.5,0,.5.15.93.46,1.28.31.36.76.62,1.36.79.6.17,1.3.26,2.11.26.69,0,1.34-.07,1.95-.2.31-.07.62-.16.91-.26ZM233.95,8.36c.6,0,1.09-.2,1.49-.59.39-.39.59-.9.59-1.52s-.2-1.09-.59-1.47c-.39-.38-.89-.58-1.49-.58s-1.09.19-1.49.58c-.39.39-.59.88-.59,1.47s.2,1.12.59,1.52c.39.39.89.59,1.49.59ZM236.32,4.06c.6,0,1.08-.19,1.46-.56.38-.38.56-.86.56-1.46s-.19-1.06-.56-1.44c-.38-.38-.86-.58-1.46-.58s-1.06.19-1.44.58c-.39.39-.58.87-.58,1.44s.19,1.08.58,1.46c.38.38.87.56,1.44.56ZM236.64,6.25c0,.62.2,1.12.59,1.52.39.39.89.59,1.49.59s1.09-.2,1.49-.59.59-.9.59-1.52-.2-1.09-.59-1.47c-.39-.38-.89-.58-1.49-.58s-1.09.19-1.49.58c-.39.39-.59.88-.59,1.47ZM243.16,11.13v7.27c0,.62-.07,1.1-.22,1.46-.14.36-.41.6-.79.74-.39.13-.94.2-1.67.2-.83,0-1.51-.06-2.03-.18.06-.47.1-.96.1-1.49v-6.58h-4.42v5.86c0,.62-.08,1.1-.23,1.46-.04.08-.08.16-.13.23l-.1.04s0,.04,0,.07c-.15.17-.34.31-.59.39-.39.13-.94.2-1.67.2s-1.29-.07-1.67-.2c-.39-.13-.65-.38-.79-.74-.14-.36-.22-.84-.22-1.46v-7.27h-4.45v2.56c-1.12.18-2.29.27-3.52.27-1.01,0-1.99-.06-2.94-.18v-2.65h-4.45v15.39c0,.6-.12,1.09-.35,1.49-.23.39-.62.69-1.17.88-.55.19-1.31.3-2.29.32l.84,4.91c1.52-.08,2.83-.43,3.94-1.05,1.11-.63,1.96-1.5,2.57-2.61.61-1.12.91-2.42.91-3.93v-7.58c.97.11,1.95.16,2.94.16,1.21,0,2.39-.08,3.54-.24.05,1.38.31,2.59.82,3.6.56,1.13,1.37,1.99,2.42,2.58,1.04.59,2.32.88,3.81.89h0s.02,0,.04,0c0,0,.01,0,.02,0h0c1.96,0,3.49-.37,4.61-1.08.23.15.48.29.74.42.97.44,2.23.66,3.77.66,2.44,0,4.23-.57,5.37-1.7,1.13-1.14,1.7-2.84,1.7-5.11v-8h-4.45Z"/>
      <path class="cls-1" d="M14.86,84.32h3.68v15.43h-3.68v-8.14l-4.32,8.14h-2.34l-4.3-8.1v8.1H.23v-15.43h3.68l5.47,10.34,5.49-10.34ZM31.56,90.91c.24.65.36,1.48.36,2.49v6.35h-3.5v-1.41c-.08.19-.17.36-.28.52-.26.37-.65.67-1.18.89-.53.22-1.26.33-2.18.33-.65,0-1.25-.05-1.82-.15-.57-.1-1.06-.29-1.49-.56-.43-.27-.76-.64-1.01-1.09-.25-.46-.37-1.04-.37-1.74,0-.59.11-1.08.33-1.48.22-.4.52-.72.9-.98.38-.26.84-.46,1.39-.6.54-.14,1.15-.24,1.81-.3l3.9-.36h0c0-.36-.07-.64-.22-.85-.15-.21-.34-.36-.57-.46-.24-.1-.49-.17-.77-.21-.28-.04-.54-.06-.77-.06s-.48.01-.75.03c-.26.02-.51.08-.73.17s-.41.22-.56.39c-.15.17-.23.41-.23.72h-3.11c0-.76.12-1.41.37-1.93.25-.52.61-.95,1.08-1.28.47-.33,1.04-.57,1.72-.72.68-.15,1.43-.22,2.27-.22.97,0,1.81.07,2.53.21.72.14,1.32.4,1.8.77.48.37.84.89,1.08,1.53ZM28.42,96.01v-.79l-3.13.28c-.28.01-.51.04-.71.09-.19.04-.35.1-.48.18-.13.07-.24.17-.31.28-.07.11-.11.25-.11.43,0,.13.04.25.13.35.09.1.21.18.35.24.15.06.32.1.53.13.21.03.43.04.68.04.48,0,.92-.04,1.3-.11.38-.07.7-.17.96-.3.26-.12.46-.27.6-.43.11-.13.16-.26.19-.4ZM46.3,94.49l-2.09-5.75h-3.84l-2.08,5.74-2.09-5.74h-3.84l4.01,11.02h3.84l2.08-5.74,2.09,5.74h3.84l4.01-11.02h-3.84l-2.09,5.75ZM63.7,90.91c.24.65.36,1.48.36,2.49v6.35h-3.5v-1.41c-.08.19-.17.36-.28.52-.26.37-.65.67-1.18.89-.53.22-1.26.33-2.18.33-.65,0-1.25-.05-1.82-.15-.57-.1-1.06-.29-1.49-.56-.43-.27-.76-.64-1.01-1.09-.25-.46-.37-1.04-.37-1.74,0-.59.11-1.08.33-1.48.22-.4.52-.72.9-.98.38-.26.84-.46,1.39-.6.54-.14,1.15-.24,1.81-.3l3.9-.36h0c0-.36-.07-.64-.22-.85-.15-.21-.34-.36-.57-.46-.24-.1-.49-.17-.77-.21-.28-.04-.54-.06-.77-.06s-.48.01-.75.03c-.26.02-.51.08-.73.17s-.41.22-.56.39c-.15.17-.23.41-.23.72h-3.11c0-.76.12-1.41.37-1.93.25-.52.61-.95,1.08-1.28.47-.33,1.04-.57,1.72-.72.68-.15,1.43-.22,2.27-.22.97,0,1.81.07,2.54.21.72.14,1.32.4,1.8.77.48.37.84.89,1.08,1.53ZM60.56,96.01v-.79l-3.13.28c-.28.01-.51.04-.71.09-.19.04-.35.1-.48.18-.13.07-.24.17-.31.28-.07.11-.11.25-.11.43,0,.13.04.25.13.35.09.1.21.18.35.24.15.06.32.1.53.13.21.03.43.04.68.04.48,0,.92-.04,1.3-.11.38-.07.7-.17.96-.3.26-.12.46-.27.6-.43.11-.13.16-.26.19-.4ZM75.49,89.54c-.35-.39-.77-.68-1.27-.86-.5-.18-1.06-.28-1.68-.28s-1.19.14-1.68.43c-.48.29-.9.69-1.25,1.2-.04.05-.07.11-.1.16v-1.46h-3.48v11.02h3.48v-5.51c0-.88.19-1.54.56-1.97.37-.43.89-.65,1.55-.65.26,0,.51.04.74.11.23.07.42.18.58.32.16.14.29.31.37.5.09.19.13.4.13.64h3.11c0-.85-.1-1.58-.29-2.17-.19-.6-.46-1.09-.8-1.48ZM78.12,99.75h3.48v-11.02h-3.48v11.02ZM79.87,83.35c-.72,0-1.24.17-1.55.5-.32.33-.47.84-.47,1.53s.16,1.2.47,1.53c.32.33.83.5,1.55.5s1.24-.17,1.55-.5c.32-.33.47-.84.47-1.53s-.16-1.2-.47-1.53c-.32-.33-.83-.5-1.55-.5ZM91.83,83.22h3.48v16.53h-3.48v-1.57c-.03.05-.05.11-.08.16-.29.53-.69.95-1.2,1.27-.51.32-1.18.47-2.01.47-.73,0-1.42-.12-2.05-.37-.63-.25-1.18-.62-1.64-1.11-.46-.49-.83-1.1-1.09-1.83-.26-.73-.4-1.57-.4-2.52,0-1.92.46-3.38,1.38-4.36.92-.98,2.16-1.48,3.71-1.48.82,0,1.49.14,2.02.42.52.28.93.67,1.23,1.18.04.07.08.15.12.23v-7.01ZM91.83,94.24c0-.88-.2-1.54-.61-1.97-.4-.43-1.02-.65-1.84-.65-.46,0-.84.06-1.15.17-.31.11-.56.28-.75.5-.19.22-.33.49-.41.82-.08.32-.12.71-.12,1.15,0,.87.2,1.52.61,1.96.4.44,1.01.66,1.82.66s1.44-.22,1.84-.66c.4-.44.61-1.09.61-1.96ZM103.25,99.75h3.68v-15.43h-3.68v15.43ZM119.49,89.53c-.39-.41-.87-.7-1.43-.87-.57-.17-1.22-.25-1.95-.25s-1.43.14-1.99.43c-.57.29-1.03.69-1.39,1.2-.04.05-.07.11-.1.16v-1.46h-3.48v11.02h3.48v-5.51c0-.88.2-1.54.61-1.97.4-.43.99-.65,1.75-.65.44,0,.8.06,1.08.17.28.11.5.27.66.48.16.21.28.47.34.77.07.3.1.66.1,1.07v5.64h3.48v-6.02c0-1.03-.1-1.88-.29-2.57-.19-.68-.48-1.23-.87-1.64ZM129.68,96.19c-.06.17-.14.3-.24.4-.1.1-.23.17-.39.21-.15.04-.33.07-.52.07-.21,0-.38-.03-.52-.1-.14-.07-.25-.17-.34-.3-.09-.13-.15-.29-.19-.47-.04-.18-.06-.39-.06-.61v-3.53h5.22v-3.13h-5.22v-4.41h-2.03l-1.45,4.41h-2.2v3.13h2.2v3.77c0,.75.09,1.4.26,1.96.18.56.45,1.02.82,1.4.37.37.83.65,1.39.83.56.18,1.22.26,1.98.26.71,0,1.34-.07,1.9-.22.56-.15,1.03-.4,1.41-.75.38-.35.68-.82.88-1.4.21-.58.31-1.3.31-2.15h-3.13c0,.25-.03.46-.09.63ZM144.15,89.99c.9,1.06,1.36,2.66,1.36,4.81v.44h-7.97c.03.15.06.29.1.42.12.38.29.69.51.93.22.24.49.4.82.51.32.1.69.15,1.1.15.32,0,.62-.03.89-.1.27-.07.5-.15.69-.26.19-.11.34-.24.45-.4.11-.15.17-.31.17-.47h3.11c0,1.22-.45,2.2-1.36,2.95-.9.75-2.22,1.12-3.96,1.12-2.09,0-3.64-.49-4.66-1.48-1.02-.98-1.53-2.44-1.53-4.36s.5-3.32,1.49-4.33c.99-1.01,2.43-1.51,4.31-1.51,2.09,0,3.58.53,4.49,1.59ZM138.13,91.99c-.2.23-.35.52-.46.86h4.44c-.03-.1-.05-.2-.08-.3-.12-.3-.28-.55-.47-.74-.2-.19-.44-.33-.74-.43-.29-.1-.62-.14-.97-.14s-.65.06-.95.19c-.29.13-.55.31-.76.56ZM156.72,89.54c-.35-.39-.77-.68-1.27-.86-.5-.18-1.06-.28-1.68-.28s-1.19.14-1.68.43c-.48.29-.9.69-1.25,1.2-.04.05-.07.11-.1.16v-1.46h-3.48v11.02h3.48v-5.51c0-.88.19-1.54.56-1.97.37-.43.89-.65,1.55-.65.26,0,.51.04.74.11.23.07.42.18.58.32.16.14.29.31.37.5.09.19.13.4.13.64h3.11c0-.85-.1-1.58-.29-2.17-.19-.6-.46-1.09-.8-1.48ZM169.7,89.53c-.39-.41-.87-.7-1.43-.87-.57-.17-1.22-.25-1.95-.25s-1.43.14-1.99.43c-.57.29-1.03.69-1.39,1.2-.04.05-.07.11-.1.16v-1.46h-3.48v11.02h3.48v-5.51c0-.88.2-1.54.61-1.97.4-.43.99-.65,1.75-.65.44,0,.8.06,1.08.17.28.11.5.27.66.48.16.21.28.47.34.77.07.3.1.66.1,1.07v5.64h3.48v-6.02c0-1.03-.1-1.88-.29-2.57-.19-.68-.48-1.23-.87-1.64ZM183.65,90.91c.24.65.36,1.48.36,2.49v6.35h-3.5v-1.41c-.08.19-.17.36-.28.52-.26.37-.65.67-1.18.89-.53.22-1.26.33-2.18.33-.65,0-1.25-.05-1.82-.15-.57-.1-1.06-.29-1.49-.56-.43-.27-.76-.64-1.01-1.09-.25-.46-.37-1.04-.37-1.74,0-.59.11-1.08.33-1.48.22-.4.52-.72.9-.98.38-.26.84-.46,1.39-.6.54-.14,1.15-.24,1.81-.3l3.9-.36h0c0-.36-.07-.64-.22-.85-.15-.21-.34-.36-.57-.46-.24-.1-.49-.17-.77-.21-.28-.04-.54-.06-.77-.06s-.48.01-.75.03c-.26.02-.51.08-.73.17s-.41.22-.56.39c-.15.17-.23.41-.23.72h-3.11c0-.76.12-1.41.37-1.93.25-.52.61-.95,1.08-1.28.47-.33,1.04-.57,1.72-.72.68-.15,1.43-.22,2.27-.22.97,0,1.81.07,2.54.21.72.14,1.32.4,1.8.77.48.37.84.89,1.08,1.53ZM180.51,96.01v-.79l-3.13.28c-.28.01-.51.04-.71.09-.19.04-.35.1-.48.18-.13.07-.24.17-.31.28-.07.11-.11.25-.11.43,0,.13.04.25.13.35.09.1.21.18.35.24.15.06.32.1.53.13.21.03.43.04.68.04.48,0,.92-.04,1.3-.11.38-.07.7-.17.96-.3.26-.12.46-.27.6-.43.11-.13.16-.26.19-.4ZM193.27,96.19c-.06.17-.14.3-.24.4-.1.1-.23.17-.39.21-.15.04-.33.07-.52.07-.21,0-.38-.03-.52-.1-.14-.07-.25-.17-.34-.3-.09-.13-.15-.29-.19-.47-.04-.18-.06-.39-.06-.61v-3.53h5.22v-3.13h-5.22v-4.41h-2.03l-1.45,4.41h-2.2v3.13h2.2v3.77c0,.75.09,1.4.26,1.96.18.56.45,1.02.82,1.4.37.37.83.65,1.39.83.56.18,1.22.26,1.98.26.71,0,1.34-.07,1.9-.22.56-.15,1.03-.4,1.41-.75.38-.35.68-.82.88-1.4.21-.58.31-1.3.31-2.15h-3.13c0,.25-.03.46-.09.63ZM199.64,83.35c-.72,0-1.24.17-1.55.5-.32.33-.47.84-.47,1.53s.16,1.2.47,1.53c.32.33.83.5,1.55.5s1.24-.17,1.55-.5c.32-.33.47-.84.47-1.53s-.16-1.2-.47-1.53c-.32-.33-.83-.5-1.55-.5ZM197.9,99.75h3.48v-11.02h-3.48v11.02ZM214.16,89.88c1.04.98,1.55,2.44,1.55,4.36s-.52,3.38-1.55,4.36c-1.04.98-2.62,1.48-4.75,1.48s-3.69-.49-4.72-1.48c-1.03-.98-1.54-2.44-1.54-4.36s.51-3.38,1.54-4.36c1.03-.98,2.6-1.48,4.72-1.48s3.71.49,4.75,1.48ZM212.12,94.24c0-.87-.22-1.52-.67-1.96-.45-.44-1.13-.66-2.04-.66-.97,0-1.66.22-2.06.66-.4.44-.61,1.1-.61,1.96s.22,1.52.66,1.96c.44.44,1.11.66,2.01.66s1.59-.22,2.04-.66c.45-.44.67-1.09.67-1.96ZM227.82,89.53c-.39-.41-.87-.7-1.43-.87-.57-.17-1.22-.25-1.95-.25s-1.43.14-1.99.43c-.57.29-1.03.69-1.39,1.2-.04.05-.07.11-.1.16v-1.46h-3.48v11.02h3.48v-5.51c0-.88.2-1.54.61-1.97.4-.43.99-.65,1.75-.65.44,0,.8.06,1.08.17.28.11.5.27.66.48.16.21.28.47.34.77.07.3.1.66.1,1.07v5.64h3.48v-6.02c0-1.03-.1-1.88-.29-2.57-.19-.68-.48-1.23-.87-1.64ZM241.78,90.91c.24.65.36,1.48.36,2.49v6.35h-3.5v-1.41c-.08.19-.17.36-.28.52-.26.37-.65.67-1.18.89-.53.22-1.26.33-2.18.33-.65,0-1.25-.05-1.82-.15-.57-.1-1.06-.29-1.49-.56-.43-.27-.76-.64-1.01-1.09-.25-.46-.37-1.04-.37-1.74,0-.59.11-1.08.33-1.48.22-.4.52-.72.9-.98.38-.26.84-.46,1.39-.6.54-.14,1.15-.24,1.81-.3l3.9-.36h0c0-.36-.07-.64-.22-.85-.15-.21-.34-.36-.57-.46-.24-.1-.49-.17-.77-.21-.28-.04-.54-.06-.77-.06s-.48.01-.75.03c-.26.02-.51.08-.73.17s-.41.22-.56.39c-.15.17-.23.41-.23.72h-3.11c0-.76.12-1.41.37-1.93.25-.52.61-.95,1.08-1.28.47-.33,1.04-.57,1.72-.72.68-.15,1.43-.22,2.27-.22.97,0,1.81.07,2.53.21.72.14,1.32.4,1.8.77.48.37.84.89,1.08,1.53ZM238.63,96.01v-.79l-3.13.28c-.28.01-.51.04-.71.09-.19.04-.35.1-.48.18-.13.07-.24.17-.31.28-.07.11-.11.25-.11.43,0,.13.04.25.13.35.09.1.21.18.35.24.15.06.32.1.53.13.21.03.43.04.68.04.48,0,.92-.04,1.3-.11.38-.07.7-.17.96-.3.26-.12.46-.27.6-.43.11-.13.16-.26.19-.4ZM244.12,99.75h3.48v-16.53h-3.48v16.53ZM9.71,117.93c-.18.23-.41.4-.69.52-.28.12-.6.2-.96.24-.36.04-.72.06-1.09.06-1.28,0-2.23-.31-2.85-.93-.62-.62-.93-1.62-.93-2.98,0-.68.06-1.26.18-1.75.12-.49.3-.89.56-1.21.26-.32.6-.55,1.03-.7.42-.15.93-.22,1.52-.22.42,0,.83.03,1.24.07.41.05.77.15,1.1.3.33.15.59.35.79.59.2.25.3.57.3.96h2.92c0-.86-.14-1.59-.42-2.2-.28-.6-.69-1.1-1.23-1.48-.54-.38-1.19-.66-1.98-.83-.78-.17-1.68-.26-2.69-.26-2.2,0-3.84.55-4.9,1.65-1.07,1.1-1.6,2.8-1.6,5.09s.57,3.99,1.71,5.09c1.14,1.1,2.88,1.65,5.24,1.65.9,0,1.71-.08,2.45-.24.73-.16,1.36-.42,1.88-.78.52-.36.92-.83,1.2-1.41.28-.58.42-1.31.42-2.17h-2.92c0,.39-.09.71-.27.93ZM23.05,113.04c.87.83,1.3,2.04,1.3,3.66s-.43,2.83-1.3,3.66c-.87.83-2.2,1.24-3.98,1.24s-3.09-.41-3.95-1.24c-.86-.83-1.29-2.04-1.29-3.66s.43-2.83,1.29-3.66c.86-.82,2.18-1.24,3.95-1.24s3.11.41,3.98,1.24ZM21.34,116.7c0-.73-.19-1.27-.56-1.64s-.95-.55-1.71-.55c-.81,0-1.39.18-1.73.55-.34.37-.51.92-.51,1.64s.18,1.27.55,1.64c.37.37.93.55,1.68.55s1.33-.18,1.71-.55.56-.92.56-1.64ZM39.97,112.74c-.33-.34-.74-.59-1.23-.73-.49-.14-1.08-.21-1.75-.21s-1.2.12-1.63.36c-.44.24-.79.57-1.06.99-.02.03-.03.06-.05.08-.08-.15-.16-.29-.25-.41-.27-.36-.61-.63-1.02-.79-.41-.16-.86-.24-1.37-.24-.64,0-1.19.12-1.64.36-.46.24-.83.58-1.14,1.01-.03.04-.05.09-.08.13v-1.22h-2.92v9.24h2.92v-4.62c0-.74.14-1.29.43-1.65.28-.36.7-.55,1.24-.55.28,0,.52.05.72.14.2.09.35.22.46.39.11.17.19.37.24.61.05.24.07.51.07.82v4.86h2.92v-4.86c0-.31.04-.58.11-.82.07-.24.18-.44.31-.61.14-.17.31-.3.52-.39.21-.09.45-.14.72-.14.3,0,.54.05.73.14.19.09.34.23.45.41.11.18.19.39.24.65.05.25.07.55.07.9v4.73h2.94v-5.04c0-.86-.08-1.58-.23-2.15-.15-.57-.39-1.03-.72-1.38ZM51.94,114.58c.19.61.29,1.31.29,2.12s-.1,1.51-.31,2.12c-.21.61-.5,1.12-.87,1.53-.37.41-.81.72-1.31.93-.51.21-1.05.31-1.63.31-.65,0-1.18-.13-1.59-.4-.41-.26-.73-.62-.96-1.06-.02-.04-.04-.08-.06-.12v5h-2.92v-12.93h2.92v1.25c.03-.06.06-.13.09-.19.23-.43.56-.75.97-.99.41-.23.94-.35,1.6-.35.62,0,1.18.1,1.68.31.5.21.93.52,1.28.93.35.41.62.92.81,1.53ZM49.21,116.7c0-.74-.14-1.29-.42-1.65-.28-.36-.75-.55-1.43-.55-.62,0-1.08.18-1.39.55-.31.36-.47.91-.47,1.65s.16,1.27.47,1.64c.31.37.78.55,1.39.55.3,0,.56-.05.78-.14.23-.09.42-.23.58-.42.16-.18.28-.42.36-.69.08-.28.12-.59.12-.95ZM62.77,113.91c.2.54.3,1.24.3,2.09v5.32h-2.94v-1.18c-.06.16-.14.3-.23.44-.22.31-.54.56-.99.75-.44.18-1.05.28-1.83.28-.54,0-1.05-.04-1.52-.13-.47-.09-.89-.24-1.25-.47-.36-.23-.64-.53-.85-.91-.21-.38-.31-.87-.31-1.46,0-.49.09-.91.28-1.24.18-.33.44-.61.76-.82.32-.22.71-.38,1.16-.5.46-.12.96-.2,1.52-.25l3.27-.3h0c0-.31-.06-.54-.18-.71-.12-.17-.28-.3-.48-.39-.2-.09-.41-.14-.65-.18-.23-.03-.45-.05-.65-.05s-.41,0-.63.03c-.22.02-.42.06-.61.14s-.34.18-.47.32c-.13.14-.19.34-.19.6h-2.6c0-.64.1-1.18.31-1.62.21-.44.51-.79.91-1.07.39-.28.87-.48,1.44-.6.57-.12,1.2-.18,1.9-.18.81,0,1.52.06,2.12.18.6.12,1.11.33,1.51.65s.7.74.91,1.28ZM60.13,118.17v-.66l-2.62.24c-.23.01-.43.04-.59.07-.16.04-.3.09-.41.15-.11.06-.2.14-.26.23-.06.09-.09.21-.09.36,0,.11.04.21.11.3.07.09.17.15.3.2.12.05.27.09.44.11.17.02.36.04.57.04.41,0,.77-.03,1.09-.09.32-.06.59-.14.8-.25.22-.1.38-.22.5-.36.09-.11.14-.22.16-.33ZM73.41,112.74c-.33-.34-.73-.59-1.2-.73-.47-.14-1.02-.21-1.63-.21s-1.2.12-1.67.36c-.47.24-.86.58-1.16,1.01-.03.04-.05.09-.08.13v-1.22h-2.92v9.24h2.92v-4.62c0-.74.17-1.29.51-1.65.34-.36.83-.55,1.47-.55.37,0,.67.05.91.14.23.09.42.23.55.41.14.18.23.39.29.65.06.25.08.55.08.9v4.73h2.92v-5.04c0-.86-.08-1.58-.24-2.15-.16-.57-.4-1.03-.73-1.38ZM81.28,117.32l-2.75-5.25h-3.31l4.73,9.06-.07.21c-.1.3-.19.56-.28.78-.09.23-.17.42-.26.57-.09.15-.18.27-.28.35-.1.08-.22.12-.37.12-.1,0-.19-.02-.29-.05-.09-.03-.17-.09-.24-.18-.07-.09-.12-.22-.17-.37-.04-.15-.06-.35-.06-.58h-2.48c0,.5.06.98.19,1.41.13.44.33.82.59,1.14.26.32.6.57,1.01.75.41.18.89.27,1.44.27.76,0,1.38-.1,1.84-.31.46-.21.84-.52,1.15-.92.3-.41.56-.9.77-1.47.21-.57.44-1.22.68-1.93l3.07-8.85h-3.1l-1.82,5.25ZM93.16,108.38h-1.24v12.93h3.08v-5.08h6.56v-2.77h-6.56v-2.31h7.3v-2.77h-9.14ZM111.92,113.04c.87.83,1.3,2.04,1.3,3.66s-.43,2.83-1.3,3.66-2.2,1.24-3.98,1.24-3.09-.41-3.95-1.24c-.86-.83-1.29-2.04-1.29-3.66s.43-2.83,1.29-3.66c.86-.82,2.18-1.24,3.95-1.24s3.11.41,3.98,1.24ZM110.22,116.7c0-.73-.19-1.27-.56-1.64-.38-.37-.95-.55-1.71-.55-.81,0-1.39.18-1.73.55s-.51.92-.51,1.64.18,1.27.55,1.64.93.55,1.68.55,1.33-.18,1.71-.55c.38-.37.56-.92.56-1.64ZM122.62,112.75c-.29-.33-.64-.57-1.06-.72-.42-.15-.89-.23-1.4-.23s-1,.12-1.4.36c-.41.24-.75.58-1.04,1.01-.03.04-.06.09-.08.14v-1.23h-2.92v9.24h2.92v-4.62c0-.74.16-1.29.47-1.65.31-.36.75-.55,1.3-.55.22,0,.43.03.62.09.19.06.35.15.49.27.14.12.24.26.31.42.07.16.11.34.11.54h2.6c0-.71-.08-1.32-.24-1.82-.16-.5-.39-.91-.67-1.24ZM138.16,116.73c-.17.05-.35.08-.54.12l3.38,4.46h-3.73l-3.26-4.3h-1.29v4.3h-3.08v-12.93h5.87c1.03,0,1.91.09,2.61.28s1.28.46,1.72.81c.44.36.75.81.93,1.35.18.54.28,1.16.28,1.87s-.09,1.34-.28,1.88c-.18.54-.49.99-.92,1.35-.43.36-.99.64-1.69.82ZM137.89,112.69c0-.25-.03-.46-.09-.66-.06-.19-.18-.35-.36-.48-.18-.13-.43-.23-.75-.3-.32-.07-.75-.1-1.27-.1h-2.7v3.08h2.7c.53,0,.95-.03,1.27-.1.32-.07.57-.17.75-.3.18-.13.3-.29.36-.48.06-.19.09-.42.09-.67ZM150.63,113.13c.76.89,1.14,2.23,1.14,4.03v.37h-6.68c.02.12.05.24.08.35.1.32.24.58.42.78.18.2.41.34.68.43.27.09.58.13.92.13.27,0,.52-.03.75-.08.23-.06.42-.13.58-.22.16-.09.29-.2.38-.33.09-.13.14-.26.14-.4h2.6c0,1.02-.38,1.85-1.14,2.48-.76.63-1.86.94-3.32.94-1.75,0-3.05-.41-3.91-1.24-.86-.83-1.28-2.04-1.28-3.66s.42-2.79,1.25-3.63c.83-.84,2.04-1.27,3.61-1.27,1.75,0,3,.44,3.76,1.33ZM145.58,114.81c-.17.19-.29.44-.39.72h3.72c-.02-.08-.04-.17-.07-.25-.1-.25-.23-.46-.4-.62-.17-.16-.37-.28-.62-.36-.25-.08-.52-.12-.81-.12s-.55.05-.79.16c-.25.1-.46.26-.64.47ZM159.88,118.16c-.08.16-.19.29-.34.4-.15.1-.34.19-.56.25-.23.06-.49.09-.79.09-.33,0-.64-.04-.92-.11-.28-.07-.53-.2-.74-.37-.21-.17-.37-.4-.48-.69-.11-.29-.17-.64-.17-1.04s.05-.75.16-1.03c.1-.28.25-.5.43-.67.18-.17.41-.3.67-.37.26-.07.54-.11.85-.11s.56.03.79.09c.23.06.43.14.6.25.17.1.3.24.39.4.09.16.13.34.13.54h2.62c0-.55-.1-1.07-.3-1.55-.2-.48-.49-.9-.87-1.27-.38-.36-.85-.65-1.41-.85-.56-.2-1.2-.3-1.93-.3-1.8,0-3.1.41-3.92,1.23-.81.82-1.22,2.04-1.22,3.67s.44,2.83,1.31,3.66c.87.83,2.16,1.24,3.86,1.24.78,0,1.45-.1,2.02-.3.57-.2,1.05-.49,1.42-.85.38-.36.66-.79.84-1.27.18-.48.28-1,.28-1.55h-2.6c0,.2-.04.38-.12.54ZM171.82,112.75c-.29-.33-.64-.57-1.06-.72-.42-.15-.89-.23-1.4-.23s-1,.12-1.4.36c-.41.24-.75.58-1.04,1.01-.03.04-.06.09-.08.14v-1.23h-2.92v9.24h2.92v-4.62c0-.74.16-1.29.47-1.65.31-.36.75-.55,1.3-.55.22,0,.43.03.62.09.19.06.35.15.49.27.14.12.24.26.31.42.07.16.11.34.11.54h2.6c0-.71-.08-1.32-.24-1.82-.16-.5-.39-.91-.67-1.24ZM180.56,116.44v.26c0,.74-.17,1.29-.51,1.65-.34.36-.83.55-1.47.55-.36,0-.65-.05-.89-.14-.23-.09-.42-.23-.56-.41-.14-.18-.24-.39-.3-.65-.06-.25-.08-.55-.08-.9v-4.73h-2.92v5.04c0,.86.08,1.58.25,2.14.17.57.41,1.03.74,1.38.33.35.73.6,1.2.74s1.02.21,1.63.21,1.19-.12,1.66-.36c.47-.24.85-.58,1.15-1.01.03-.04.05-.09.08-.13v1.22h2.92v-9.24h-2.92v4.36ZM186.79,107.57c-.6,0-1.04.14-1.3.42-.26.28-.4.71-.4,1.28s.13,1.01.4,1.28c.26.28.7.42,1.3.42s1.04-.14,1.3-.42c.26-.28.4-.7.4-1.28s-.13-1.01-.4-1.28c-.26-.28-.7-.42-1.3-.42ZM185.33,121.32h2.92v-9.24h-2.92v9.24ZM196.19,118.33c-.05.14-.12.25-.2.33-.09.08-.19.14-.32.18-.13.04-.27.06-.43.06-.17,0-.32-.03-.43-.08-.12-.06-.21-.14-.29-.25-.07-.11-.13-.24-.16-.4-.03-.15-.05-.32-.05-.51v-2.96h4.38v-2.62h-4.38v-3.7h-1.7l-1.22,3.7h-1.85v2.62h1.85v3.16c0,.63.07,1.18.22,1.64.15.47.38.86.68,1.17.31.31.7.55,1.16.69.47.15,1.02.22,1.66.22.59,0,1.12-.06,1.59-.18.47-.12.86-.33,1.18-.63.32-.3.57-.69.74-1.17.17-.49.26-1.09.26-1.8h-2.62c0,.21-.02.39-.07.53ZM214.21,112.74c-.33-.34-.74-.59-1.23-.73-.49-.14-1.08-.21-1.75-.21s-1.2.12-1.63.36c-.44.24-.79.57-1.06.99-.02.03-.03.06-.05.08-.08-.15-.16-.29-.25-.41-.27-.36-.61-.63-1.02-.79-.41-.16-.86-.24-1.37-.24-.64,0-1.19.12-1.64.36-.46.24-.83.58-1.14,1.01-.03.04-.05.09-.08.13v-1.22h-2.92v9.24h2.92v-4.62c0-.74.14-1.29.42-1.65.28-.36.7-.55,1.24-.55.28,0,.52.05.72.14.2.09.35.22.46.39.11.17.19.37.24.61.05.24.07.51.07.82v4.86h2.92v-4.86c0-.31.04-.58.11-.82.07-.24.18-.44.31-.61.14-.17.31-.3.52-.39.21-.09.45-.14.72-.14.3,0,.54.05.73.14.19.09.34.23.45.41.11.18.19.39.24.65.05.25.07.55.07.9v4.73h2.94v-5.04c0-.86-.08-1.58-.23-2.15-.15-.57-.39-1.03-.72-1.38ZM225.08,113.13c.76.89,1.14,2.23,1.14,4.03v.37h-6.68c.02.12.05.24.08.35.1.32.24.58.42.78.18.2.41.34.68.43.27.09.58.13.92.13.27,0,.52-.03.75-.08.23-.06.42-.13.58-.22.16-.09.29-.2.38-.33.09-.13.14-.26.14-.4h2.6c0,1.02-.38,1.85-1.14,2.48-.76.63-1.86.94-3.32.94-1.75,0-3.05-.41-3.91-1.24-.86-.83-1.28-2.04-1.28-3.66s.42-2.79,1.25-3.63c.83-.84,2.04-1.27,3.61-1.27,1.75,0,3,.44,3.76,1.33ZM220.03,114.81c-.17.19-.29.44-.39.72h3.72c-.02-.08-.04-.17-.07-.25-.1-.25-.23-.46-.4-.62-.17-.16-.37-.28-.62-.36-.25-.08-.52-.12-.81-.12s-.55.05-.79.16c-.25.1-.46.26-.64.47ZM236.36,112.74c-.33-.34-.73-.59-1.2-.73-.47-.14-1.02-.21-1.63-.21s-1.2.12-1.67.36c-.47.24-.86.58-1.16,1.01-.03.04-.05.09-.08.13v-1.22h-2.92v9.24h2.92v-4.62c0-.74.17-1.29.51-1.65.34-.36.83-.55,1.47-.55.37,0,.67.05.91.14.23.09.42.23.55.41.14.18.23.39.29.65.06.25.08.55.08.9v4.73h2.92v-5.04c0-.86-.08-1.58-.24-2.15-.16-.57-.4-1.03-.73-1.38ZM244.98,117.81c0,.21-.02.39-.07.53-.05.14-.12.25-.2.33-.09.08-.19.14-.32.18-.13.04-.27.06-.43.06-.17,0-.32-.03-.43-.08s-.21-.14-.29-.25-.13-.24-.16-.4c-.03-.15-.05-.32-.05-.51v-2.96h4.38v-2.62h-4.38v-3.7h-1.7l-1.22,3.7h-1.85v2.62h1.85v3.16c0,.63.07,1.18.22,1.64.15.47.38.86.68,1.17.31.31.7.55,1.16.69.47.15,1.02.22,1.66.22.59,0,1.12-.06,1.59-.18.47-.12.86-.33,1.18-.63.32-.3.57-.69.74-1.17.17-.49.26-1.09.26-1.8h-2.62Z"/>
      <path class="cls-1" d="M18.56,56.65c.29,1.04.43,2.16.43,3.35s-.15,2.44-.45,3.75c-.3,1.31-.73,2.5-1.28,3.58-.94-.19-1.91-.39-2.89-.59-.98-.2-1.91-.38-2.79-.55-.88-.16-1.64-.29-2.29-.38-.65-.09-1.13-.13-1.41-.13-.4,0-.79.1-1.17.29-.38.19-.69.52-.94,1-.25.47-.38,1.11-.38,1.92,0,.37.03.87.09,1.52.06.64.12,1.37.2,2.17.08.8.16,1.6.25,2.4s.17,1.53.25,2.21H1.79c-.08-.67-.15-1.41-.23-2.19-.08-.79-.15-1.57-.23-2.35-.08-.78-.14-1.5-.19-2.17-.05-.66-.07-1.2-.07-1.6,0-1.1.15-2.14.46-3.12.31-.98.76-1.86,1.34-2.63.59-.77,1.29-1.37,2.12-1.8.83-.43,1.76-.65,2.8-.65.38,0,.92.06,1.6.19.68.13,1.49.31,2.41.55.79.2,1.64.44,2.54.69.14-.67.21-1.34.21-2.01,0-1.25-.2-2.17-.59-2.76-.39-.59-.95-.88-1.66-.88-.44,0-.9.13-1.39.38-.48.25-.98.64-1.49,1.18-.51.54-1.07,1.25-1.69,2.14l-3.9-2.6c.48-.71,1-1.43,1.56-2.15.56-.72,1.17-1.39,1.85-1.99.67-.61,1.42-1.1,2.25-1.47.83-.38,1.75-.56,2.77-.56,1.1,0,2.07.23,2.92.68.85.45,1.55,1.07,2.11,1.86.56.79.98,1.7,1.27,2.74ZM22.69,66.55h4.45v-25h-4.45v25ZM55.83,48.19c.62,0,1.12-.2,1.5-.59.38-.39.58-.89.58-1.49s-.19-1.12-.58-1.5c-.39-.38-.89-.58-1.5-.58s-1.09.19-1.49.58c-.39.39-.59.89-.59,1.5s.2,1.09.59,1.49c.39.39.89.59,1.49.59ZM60.59,48.19c.6,0,1.09-.2,1.49-.59.39-.39.59-.89.59-1.49s-.2-1.12-.59-1.5c-.39-.38-.89-.58-1.49-.58s-1.09.19-1.49.58c-.39.39-.59.89-.59,1.5s.2,1.09.59,1.49c.39.39.89.59,1.49.59ZM77.25,48.91c.6,0,1.09-.2,1.49-.59.39-.39.59-.89.59-1.49s-.2-1.12-.59-1.5c-.39-.38-.89-.58-1.49-.58s-1.09.19-1.49.58c-.39.39-.59.89-.59,1.5s.2,1.09.59,1.49c.39.39.89.59,1.49.59ZM72.48,48.91c.62,0,1.12-.2,1.5-.59.38-.39.58-.89.58-1.49s-.19-1.12-.58-1.5c-.39-.38-.89-.58-1.5-.58s-1.09.19-1.49.58c-.39.39-.59.89-.59,1.5s.2,1.09.59,1.49c.39.39.89.59,1.49.59ZM103.63,51.74v7.27c0,.87-.25,1.51-.74,1.93-.49.42-1.04.63-1.66.63-.56,0-1.08-.18-1.57-.55-.31-.23-.52-.53-.67-.9,0-.14.02-.26.02-.4v-6.58h-4.45v5.86c0,.87-.25,1.51-.74,1.93-.49.42-1.04.63-1.66.63-.56,0-1.08-.18-1.56-.55-.36-.27-.6-.64-.73-1.1.02-.3.04-.6.04-.92v-4.45h-4.45v4.45c0,.62-.07,1.1-.22,1.46-.14.36-.41.6-.81.74-.39.13-.97.2-1.72.2h-2.63c-.75,0-1.33-.07-1.73-.2-.4-.13-.68-.38-.82-.74-.14-.36-.22-.84-.22-1.46v-7.27h-4.42v7.27c0,.62-.08,1.1-.23,1.46-.15.36-.42.6-.81.74-.39.13-.96.2-1.73.2h-1.59c-1.02,0-1.97-.02-2.86-.06-.31-.01-.61-.03-.91-.05.64-.97.97-2.1.97-3.42s-.34-2.57-1.02-3.61c-.68-1.04-1.6-1.85-2.74-2.42-1.15-.58-2.41-.87-3.8-.87s-2.65.29-3.8.88c-1.15.59-2.05,1.4-2.73,2.42-.67,1.03-1.01,2.22-1.01,3.56s.33,2.46.97,3.45c-.27.01-.53.03-.82.04-.93.04-1.93.06-2.99.06h-2.86c-.23-.87-.52-1.71-.88-2.51-1.01-2.27-2.42-4.18-4.24-5.72-1.82-1.54-3.98-2.59-6.48-3.15l-.95,4.79c1.87.46,3.45,1.22,4.75,2.28,1.3,1.06,2.29,2.39,2.97,3.98.04.1.07.21.12.32h-10v5.14h17.58c1.69,0,3.39-.08,5.09-.25,1.7-.16,3.32-.44,4.86-.82.14-.03.27-.08.4-.11.98.27,2.03.5,3.16.68,2.18.34,4.58.51,7.2.51h1.59c1.54-.02,2.84-.32,3.91-.91.39-.21.73-.47,1.05-.76.33.3.68.57,1.07.78,1.06.59,2.37.88,3.93.88h2.63c1.54,0,2.84-.29,3.91-.88.69-.38,1.27-.89,1.75-1.5.57.79,1.24,1.39,2.03,1.77.84.4,1.72.61,2.64.61,1,0,1.95-.24,2.86-.72.64-.34,1.2-.82,1.67-1.43.53.68,1.15,1.2,1.88,1.55.85.4,1.72.61,2.63.61,1,0,1.95-.24,2.86-.72.9-.48,1.65-1.23,2.24-2.24.59-1.01.88-2.29.88-3.85v-8h-4.45ZM60.6,59.76c-.47.48-1.21.91-2.22,1.27-.06.02-.13.04-.2.06-.02,0-.04-.01-.06-.02-1.05-.38-1.82-.81-2.31-1.31-.49-.5-.74-1.04-.74-1.62,0-.48.13-.92.39-1.31.26-.39.63-.72,1.11-.97.48-.25,1.03-.38,1.65-.38s1.15.12,1.62.35c.46.23.82.55,1.08.95.26.4.39.86.39,1.36,0,.6-.24,1.14-.71,1.62ZM137.69,61.41h-4.76c-.75,0-1.33-.07-1.73-.2-.4-.13-.68-.38-.82-.74-.14-.36-.22-.84-.22-1.46v-17.46h-4.42v17.46c0,.62-.07,1.1-.22,1.46-.14.36-.41.6-.81.74-.39.13-.98.2-1.75.2h-2.68v-12.56h-4.42v12.56h-4.1v5.14h11.2c1.54-.02,2.84-.32,3.91-.91.39-.21.73-.47,1.05-.76.33.3.68.57,1.08.79,1.07.59,2.37.88,3.91.88h9.21v-25h-4.45v19.86ZM117.66,73.17c-.4-.2-.61-.42-.61-.65,0-.25.2-.48.61-.68.4-.2.94-.3,1.62-.3.21,0,.44.02.69.06.25.04.48.08.69.12l.95-2.14c-.39-.21-.79-.37-1.23-.46-.43-.1-.88-.14-1.34-.14-.73,0-1.42.13-2.08.4-.65.27-1.18.66-1.57,1.17-.39.51-.59,1.11-.59,1.8,0,.42.08.79.23,1.13h-.9v2.63h7.91v-2.63h-2.74c-.69,0-1.24-.1-1.65-.3ZM157.99,46.83c.62,0,1.12-.2,1.5-.59.38-.39.58-.89.58-1.49s-.19-1.12-.58-1.5c-.39-.38-.89-.58-1.5-.58s-1.09.19-1.49.58c-.39.39-.59.89-.59,1.5s.2,1.09.59,1.49c.39.39.89.59,1.49.59ZM162.75,46.83c.6,0,1.09-.2,1.49-.59.39-.39.59-.89.59-1.49s-.2-1.12-.59-1.5c-.39-.38-.89-.58-1.49-.58s-1.09.19-1.49.58c-.39.39-.59.89-.59,1.5s.2,1.09.59,1.49c.39.39.89.59,1.49.59ZM180.73,69.38c-.6,0-1.09.2-1.49.59-.39.39-.59.9-.59,1.52,0,.58.2,1.06.59,1.46.39.39.89.59,1.49.59s1.09-.2,1.49-.59c.39-.39.59-.88.59-1.46,0-.62-.2-1.12-.59-1.52-.39-.39-.89-.59-1.49-.59ZM188.73,41.55v19.86h-5.14c-.75,0-1.33-.07-1.73-.2-.4-.13-.68-.38-.82-.74-.14-.36-.22-.84-.22-1.46v-7.27h-4.42v7.27c0,.62-.08,1.1-.23,1.46-.15.36-.42.6-.81.74-.39.13-.96.2-1.73.2h-2.66c-.75,0-1.32-.07-1.72-.2-.39-.13-.66-.38-.81-.74-.14-.36-.22-.84-.22-1.46v-9.53h-4.45v.92c-1.48.08-2.88.28-4.17.63-1.4.38-2.61.9-3.65,1.57-1.04.67-1.85,1.51-2.44,2.5-.59.99-.88,2.13-.88,3.42,0,1.14.22,2.13.66,2.99.44.86,1.05,1.57,1.82,2.14.77.57,1.66,1,2.68,1.28,1.02.29,2.1.43,3.23.43.94,0,1.9-.11,2.86-.32.59-.13,1.16-.3,1.71-.51.42.45.9.82,1.45,1.13,1.07.59,2.37.88,3.91.88h2.66c1.54-.02,2.84-.32,3.91-.91.39-.21.73-.47,1.05-.76.33.3.68.57,1.07.78,1.06.59,2.37.88,3.93.88h9.58v-25h-4.45ZM162.97,60.69c-.61.13-1.26.2-1.95.2-.81,0-1.51-.09-2.11-.26-.6-.17-1.05-.44-1.36-.79-.31-.36-.46-.78-.46-1.28,0-.56.18-1.06.53-1.5.36-.44.86-.82,1.52-1.14.65-.32,1.42-.57,2.29-.75.72-.15,1.52-.24,2.35-.29v4.15c0,.5.04.96.09,1.42-.3.1-.6.19-.91.26ZM175.97,69.38c-.6,0-1.09.2-1.49.59-.39.39-.59.9-.59,1.52,0,.58.2,1.06.59,1.46.39.39.89.59,1.49.59s1.09-.2,1.49-.59c.39-.39.59-.88.59-1.46,0-.62-.2-1.12-.59-1.52-.39-.39-.89-.59-1.49-.59ZM207.41,51.49c-1.06-.34-2.15-.51-3.26-.51s-2.2.2-3.2.61c-1,.4-1.88.96-2.64,1.66-.76.7-1.35,1.53-1.78,2.48-.42.95-.63,2-.63,3.13,0,1.4.34,2.69,1.01,3.85.67,1.16,1.63,2.09,2.86,2.79,1.23.69,2.67,1.04,4.33,1.04h1.73v.61c0,.81-.26,1.42-.78,1.83-.52.41-1.44.62-2.77.62h-5.14v5.14h5.14c1.62,0,3.02-.3,4.21-.91,1.19-.61,2.12-1.48,2.77-2.63.65-1.15.98-2.5.98-4.06v-14.58c-.83-.38-1.77-.75-2.83-1.08ZM205.82,61.78h-1.73c-.79,0-1.47-.13-2.04-.4-.57-.27-1-.63-1.28-1.07-.29-.44-.43-.91-.43-1.41,0-.54.16-1.05.48-1.53.32-.48.76-.87,1.33-1.17.57-.3,1.24-.45,2.01-.45.52,0,1.08.09,1.67.25v5.78ZM234.46,61.41h-6.96c-.23-.87-.52-1.71-.88-2.51-1.01-2.27-2.42-4.18-4.24-5.72-1.82-1.54-3.98-2.59-6.48-3.15l-.95,4.79c1.87.46,3.45,1.22,4.75,2.28,1.3,1.06,2.29,2.39,2.97,3.98.04.1.07.21.12.32h-10v5.14h26.12v-25h-4.45v19.86ZM242.6,66.55h4.45v-25h-4.45v25Z"/>
      <rect class="cls-1" x="272.32" width="1.84" height="133.62" transform="translate(546.48 133.62) rotate(180)"/>
    </g>
  </g>
</svg>